#!OML:ASF F:\VICON\USERDATA\INSTALL\rory3\rory3.ASF
:FULLY-SPECIFIED
:DEGREES
51
root 0.3604140823875033 21.62098703400528 -3.687652506960105 13.365786556891463 1.466102203251232 -0.6007781503332585
lfemur -25.657802120348503 8.792318071111339 -16.446870705583304
ltibia 41.893693088588776
lfoot 21.167747675727558 -1.060972505688766
ltoes -9.002840782802537
rfemur -23.030548501141517 -9.782191087579251 19.706725944782256
rtibia 45.48940006745066
rfoot 17.31510371872419 -8.640230816948216
rtoes 17.92331207829085
lowerback 4.179143091232821 -0.4321668168058623 -3.1634311025647897
upperback 2.0560705045916934 -0.7352481910299252 1.8330434314738944
thorax -0.6931099093826698 -0.3968266295020494 3.296349952273512
lowerneck -8.90171167106701 -0.4224990829723212 -3.031248047385966
upperneck 18.502218421461567 -0.49500803446330977 2.2416974357136428
head 6.882105391098708 -0.2417954516358069 1.1428270207314386
lclavicle 1.4980794192525959e-15 -9.062522316096883e-16
lhumerus -8.610754405536914 -17.895385122721212 84.1859174988076
lradius 34.965214059958626
lwrist 29.30186405310626
lhand -24.717344669009865 -8.769957787262776
lfingers 7.125019999999998
lthumb 1.784451677916617 21.194095231938682
rclavicle 1.4980794192525959e-15 -9.062522316096883e-16
rhumerus -16.349961169656545 6.750578929279525 -81.56004428359496
rradius 44.75464113355295
rwrist 29.77051466600502
rhand -17.371999373048475 -24.55836861707143
rfingers 7.125019999999998
rthumb 8.875884949613596 -54.281016148403005
52
root 0.36363946738337544 22.281780013305813 -1.9374537634807925 11.7893294240321 1.7150027356115176 -0.7289954263558762
lfemur -27.696296091153286 9.417230957811661 -17.10578844754382
ltibia 40.049088760663636
lfoot 22.756853034176387 -2.2072930505925683
ltoes -6.496641411567909
rfemur -25.593506903847018 -10.54663454519246 20.328830542578988
rtibia 44.65867841905957
rfoot 19.61784203275608 -6.726644576384996
rtoes 19.66412491397555
lowerback 5.000192285455249 -0.47905558363486406 -3.250847797526594
upperback 2.9953596300957552 -0.8441999766660802 1.8648366987779803
thorax -0.461332920792318 -0.46559216388800195 3.3591307862611632
lowerneck -8.599444261839473 -0.45843427564357175 -2.8458738946402926
upperneck 20.21553406148186 -0.6187846361861707 2.3704269184857263
head 7.4425384675097295 -0.26934538708950195 1.1496322218500956
lclavicle 1.5109921405960908e-15 -8.919727374202287e-16
lhumerus -8.822946832146808 -17.290920233758726 85.4546158060425
lradius 33.931210644551555
lwrist 29.408454935846045
lhand -24.402342551713613 -8.868192708023152
lfingers 7.125019999999998
lthumb 2.0886555572240826 21.097076817818483
rclavicle 1.5109921405960908e-15 -8.919727374202287e-16
rhumerus -16.87957701149945 3.8830998573548765 -81.99973722087107
rradius 42.00269321009722
rwrist 30.722109157917128
rhand -17.406702051021956 -24.558956565825227
rfingers 7.125019999999998
rthumb 8.842422483786263 -54.28247237393195
53
root 0.36819449068147414 22.387142217292368 -0.26592475105170443 10.052835961108341 1.8312367376529308 -0.8943410369256751
lfemur -29.978147503932696 9.970212668555337 -17.963064302261763
ltibia 36.37598952776225
lfoot 22.487520729915722 -3.2368547754887445
ltoes -6.118505559753868
rfemur -28.41314440240495 -10.877956867030244 20.79022447364467
rtibia 41.33508243853667
rfoot 19.99615094765052 -5.011823017323183
rtoes 19.04710870488902
lowerback 5.590875485853321 -0.43350922298208105 -3.238097856079346
upperback 3.590857125516549 -0.8175622497031008 1.856102004060749
thorax -0.4950828060696164 -0.4594627077440334 3.3224735302188013
lowerneck -8.623501000422348 -0.5169546457397872 -2.641249534749183
upperneck 21.714619174324312 -0.7796623621513376 2.4222836547441498
head 8.003874166422147 -0.30871720536083624 1.1298227193247734
lclavicle 1.3055912171170902e-15 -1.1175091179609248e-15
lhumerus -10.077335655284314 -15.198817632452233 86.25356874462867
lradius 31.375851913719963
lwrist 27.393514841325075
lhand -24.176253649571258 -8.952024272728156
lfingers 7.125019999999998
lthumb 2.3069953587615055 21.014699580437984
rclavicle 1.3055912171170902e-15 -1.1175091179609248e-15
rhumerus -18.176893553785018 -0.278395587178883 -82.08695360933964
rradius 37.91703578017895
rwrist 32.174744275425695
rhand -17.5221720495902 -24.683180623135797
rfingers 7.125019999999998
rthumb 8.73104040729888 -54.412396836711224
54
root 0.3704584619403939 21.913746532907037 1.8908732526611958 8.068506083931034 1.8933108808750503 -0.9995559562336096
lfemur -30.86733078519832 10.379519992176526 -18.612007008078454
ltibia 32.859397245312266
lfoot 20.7669574102717 -4.012742955565754
ltoes -6.690860645385156
rfemur -29.723233350928812 -10.723975766409053 20.869470769672485
rtibia 37.460019964682274
rfoot 18.818253899424768 -3.3989616629823374
rtoes 17.484786544616362
lowerback 5.827911714063793 -0.26382883652107475 -3.09230623624301
upperback 3.8438563611195073 -0.6073077741794554 1.8082920062341619
thorax -0.40602334078902613 -0.3540149976856275 3.201894866520433
lowerneck -8.671802593300384 -0.6319349408385804 -2.5244913725260356
upperneck 23.319222405382334 -1.0119149114128576 2.5588816571793283
head 8.629800031335769 -0.37714206649896054 1.1338002684139539
lclavicle 1.2652663038890235e-15 -1.16171546215637e-15
lhumerus -12.12312419695798 -11.685813731189938 86.38761081564171
lradius 28.00703744541611
lwrist 24.080698366601894
lhand -23.9194291310562 -9.001326369965172
lfingers 7.125019999999998
lthumb 2.5550090011410953 20.965402120667783
rclavicle 1.2652663038890235e-15 -1.16171546215637e-15
rhumerus -19.813606045430753 -4.290428433164243 -81.72025118499477
rradius 33.59926597818433
rwrist 34.24539968424649
rhand -17.744637287719193 -24.99854459113804
rfingers 7.125019999999998
rthumb 8.51643272151117 -54.7404582528783
55
root 0.36574721317123154 20.90137314037089 4.289008633373434 5.27266374188527 1.8577257471116875 -1.0461320288256646
lfemur -30.46836900124687 10.534205217357181 -18.722222633842033
ltibia 32.35527934237267
lfoot 16.75268710598249 -4.117242853874702
ltoes -7.923052635969263
rfemur -29.60294562903383 -10.144297720528527 20.53492852774028
rtibia 36.38587607564568
rfoot 14.983452835307892 -1.9214709950245343
rtoes 15.050519574400735
lowerback 5.715437084249381 0.014813031260754284 -2.778657820499105
upperback 3.8809912632535166 -0.226107480173594 1.734861169817045
thorax -0.19852247934921818 -0.16007487693042832 2.9926691445822993
lowerneck -8.71771855255621 -0.7991268585468828 -2.50873762761041
upperneck 25.13645692613432 -1.3108049628577045 2.777040186411261
head 9.351357890167199 -0.47443095239981936 1.1669866748588156
lclavicle 1.3083025973107204e-15 -1.114456712370822e-15
lhumerus -14.712031496977364 -7.050202999399237 85.91649307118423
lradius 24.591937361217337
lwrist 20.240755477474224
lhand -23.94475147454093 -9.186024099115938
lfingers 7.125019999999998
lthumb 2.5305519336771285 20.77785988196612
rclavicle 1.3083025973107204e-15 -1.114456712370822e-15
rhumerus -21.23769646044605 -8.013779805214664 -81.13192509118441
rradius 29.868205952627893
rwrist 36.576910957871064
rhand -18.085522710761197 -25.54997437869993
rfingers 7.125019999999998
rthumb 8.187565333215838 -55.311961373600646
56
root 0.3555262641050029 19.54231692423459 6.391988668748159 1.6390378312659255 1.6591606122808296 -1.1212714176663696
lfemur -30.415842097726944 10.268139398306136 -18.363395165265164
ltibia 35.68120415821612
lfoot 9.74144683465359 -3.07801124592177
ltoes -10.52162105275649
rfemur -29.694365304837365 -9.40255012453448 20.02085308896609
rtibia 39.468288592334204
rfoot 7.600906343252829 -0.9734980594144549
rtoes 11.150111533184369
lowerback 5.432319909348957 0.37068458283126393 -2.3978359280501995
upperback 3.727673628977653 0.26441561669125824 1.6644962563039956
thorax -0.2792610220463554 0.09539996934837663 2.729953304173397
lowerneck -9.005406074090182 -1.0109946811569848 -2.5348469423648003
upperneck 26.89661218433653 -1.674463786848194 2.9963620517625786
head 10.099731361234953 -0.5952357763633823 1.1999308025340372
lclavicle 1.065225714243742e-15 -1.381680575676679e-15
lhumerus -17.27483601911391 -2.4550148765349107 85.04405447180328
lradius 21.476714583664446
lwrist 16.281322776880124
lhand -24.55530493202082 -9.683300047621614
lfingers 7.125019999999998
lthumb 1.9409673785101995 20.27725719609441
rclavicle 1.065225714243742e-15 -1.381680575676679e-15
rhumerus -21.761655360799274 -11.340809267985087 -80.89965553779838
rradius 27.20993210128813
rwrist 38.48498828266842
rhand -18.66054885515869 -26.3206157732041
rfingers 7.125019999999998
rthumb 7.632797081235898 -56.11307975397624
57
root 0.36071661737588034 18.314084106294377 8.707811288699315 -1.0457443727951397 1.445420362253011 -1.2029226188684843
lfemur -30.213095662615206 9.671838214710972 -17.726200007906254
ltibia 42.3898858372383
lfoot 1.8815069227189003 -0.45881657507337614
ltoes -13.403468097557502
rfemur -29.49999890406568 -8.48810051386021 19.78835075592284
rtibia 46.159130440898316
rfoot -0.9808425644011205 -0.3275977394147409
rtoes 7.159470163346261
lowerback 5.7660680227621 0.7933448021035074 -1.9061706842062789
upperback 3.8132133339828074 0.8401669472804132 1.6779674842025636
thorax -0.29820430545263976 0.3983222382471371 2.5248621052546625
lowerneck -9.345875298534095 -1.1921273555544099 -2.4928540926657403
upperneck 28.718807403188553 -1.9946175663971786 3.238032028194353
head 10.893039303764137 -0.6961866792595459 1.2291118211185244
lclavicle 1.2023549918059972e-15 -1.2313153978822225e-15
lhumerus -18.938265144943493 2.0224261966877384 84.67995277658108
lradius 19.76131189776019
lwrist 14.318176138070072
lhand -25.42388364689412 -10.041024643528782
lfingers 7.125019999999998
lthumb 1.10222184326472 19.916242337476653
rclavicle 1.2023549918059972e-15 -1.2313153978822225e-15
rhumerus -20.88508007557358 -12.975271446544609 -80.95501076052979
rradius 26.75566098896917
rwrist 39.539502153949094
rhand -19.364525527562954 -27.108504923764727
rfingers 7.125019999999998
rthumb 6.953603893090957 -56.93631997000416
